<svg xmlns="http://www.w3.org/2000/svg" viewBox="19.205009765624993 101.20399893188477 536.5899963378906 309.89600144958496"><rect height="100%" width="100%" x="19.205009765624993" y="101.20399893188477" fill="#ffffff"/> <svg xmlns="http://www.w3.org/2000/svg" xmlns:xlink="http://www.w3.org/1999/xlink" xmlnsSerif="http://www.serif.com/" viewBox="0 0 115.45100402832031 102.64801025390625" version="1.1" xml:space="preserve" height="112.91629085540771" width="127" y="171.20399893188477" x="336.18" preserveAspectRatio="xMinYMin" fill-rule="evenodd" clip-rule="evenodd" stroke-linejoin="round" stroke-miterlimit="2" style="overflow: visible;"><path d="M71.659,78.852l0.654,15.12l14.861,-6.162l-15.515,-8.958Z" style="fill: #080099;"></path><path d="M102.659,78.881l-15.555,8.981l0.028,14.786l28.319,-16.35l-12.792,-7.417Z" style="fill: #171d5c;"></path><path d="M102.619,78.905l-0.654,15.12l-14.861,-6.163l15.515,-8.957Z" style="fill: #000b9b;"></path><path d="M86.861,52.428l15.556,8.981l12.791,-7.417l-28.319,-16.35l-0.028,14.786Z" style="fill: #5f1fbf;"></path><path d="M58.774,61.329l-21.935,-12.663l12.791,-7.417l15.556,8.98l-0,0.012l15.485,-8.94l12.791,7.417l-21.87,12.626l0,29.275l-12.818,-1.767l-0,-27.523Z" style="fill: #5e1fbf;"></path><path d="M86.902,52.451l13.421,-6.993l2.094,15.951l-15.515,-8.958Z" style="fill: #9d00f5;"></path><path d="M102.427,79.284l0,-17.962l12.819,-7.369l0,32.7l-12.819,-7.369Z" style="fill: #201fc4;"></path><path d="M77.261,61.554l-12.767,8.126l12.767,9.789l0,-17.915Z" style="fill: #f5e300;"></path><path d="M102.427,79.237l12.768,-8.127l-12.768,-9.788l0,17.915Z" style="fill: #0002f7;"></path><path d="M49.671,41.272l0.654,15.12l14.861,-6.163l-15.515,-8.957Z" style="fill: #080099;"></path><path d="M49.604,23.364l0,17.962l-12.819,7.369l0,-32.699l12.819,7.368Z" style="fill: #5e1fbf;"></path><path d="M52.415,24.874l-9.455,6.018l9.455,7.248l0,-13.266Z" style="fill: #ff00ec;"></path><path d="M61.353,56.264l-8.554,5.444l8.554,6.558l-0,-12.002Zm-1.51,6.32l0.382,0.21l0.018,-0.407l-0.4,0.197Z" style="fill: #f5a200;"></path><path d="M80.63,41.324l-0.654,15.121l-14.86,-6.163l15.514,-8.958Z" style="fill: #000b9b;"></path><path d="M64.873,14.848l15.555,8.98l12.791,-7.417l-28.318,-16.349l-0.028,14.786Z" style="fill: #5f1fbf;"></path><path d="M64.913,14.871l13.422,-6.994l2.093,15.951l-15.515,-8.957Z" style="fill: #9d00f5;"></path><path d="M49.372,23.767l15.555,-8.981l-0.028,-14.786l-28.318,16.35l12.791,7.417Z" style="fill: #881fbf;"></path><path d="M49.412,23.743l0.654,-15.12l14.861,6.163l-15.515,8.957Z" style="fill: #d700f5;"></path><path d="M80.439,41.703l-0,-17.961l12.819,-7.369l-0,32.699l-12.819,-7.369Z" style="fill: #201fc4;"></path><path d="M80.439,41.656l12.767,-8.126l-12.767,-9.788l-0,17.914Z" style="fill: #0002f7;"></path><path d="M27.697,78.829l15.555,8.981l-0.028,14.786l-28.319,-16.35l12.792,-7.417Z" style="fill: #321fbf;"></path><path d="M27.438,61.347l15.555,-8.981l-6.197,-11.224l-22.149,12.788l12.791,7.417Z" style="fill: #881fbf;"></path><path d="M27.737,78.852l0.654,15.12l14.861,-6.162l-15.515,-8.958Z" style="fill: #080099;"></path><path d="M27.67,60.945l0,17.962l-12.819,7.368l0,-32.699l12.819,7.369Z" style="fill: #5e1fbf;"></path><path d="M27.67,60.992l-12.767,8.126l12.767,9.789l0,-17.915Z" style="fill: #9400f5;"></path><path d="M65.133,89.991l6.486,-11.162l15.555,8.981l-0.028,14.786l-21.923,-12.658l-22.013,12.71l-0.028,-14.786l15.555,-8.981l6.396,11.11Z" style="fill: #321fbf;"></path><path d="M58.697,78.905l-0.654,15.12l-14.861,-6.163l15.515,-8.957Z" style="fill: #000b9b;"></path><path d="M42.971,51.694l-14.992,-4.92l-0,14.29l14.992,-9.37Z" style="fill: #b400f5;"></path><path d="M10.028,12.323l11.773,-6.135l1.837,13.992l-13.61,-7.857Z" style="fill: #9d00f5;"></path><path d="M15.885,43.333l0.654,-15.12l14.86,6.163l-15.514,8.957Z" style="fill: #d700f5;"></path><path d="M0,30.966l0.491,-11.342l11.147,4.623l-11.638,6.719Z" style="fill: #0070f5;"></path><path d="M61.353,71.724l-8.554,5.445l8.554,6.558l-0,-12.003Zm-1.51,6.321l0.382,0.21l0.018,-0.407l-0.4,0.197Z" style="fill: #f5a200;"></path></svg> <svg y="296.3099994659424" viewBox="3.430000066757202 13.779999732971191 396.5899963378906 44.790000915527344" x="89.205009765625" height="44.790000915527344" width="396.5899963378906" style="overflow: visible;"><g fill="#000b9b" fill-opacity="1" style=""><path d="M27.62 19.26L37.09 19.26L37.09 58.13L27.62 58.13L27.62 42.13L12.90 42.13L12.90 58.13L3.43 58.13L3.43 19.26L12.90 19.26L12.90 34.49L27.62 34.49L27.62 19.26ZM73.02 42.18Q73.02 43.51 72.85 44.95L72.85 44.95L51.43 44.95Q51.65 47.83 53.28 49.35Q54.91 50.87 57.30 50.87L57.30 50.87Q60.84 50.87 62.22 47.88L62.22 47.88L72.30 47.88Q71.52 50.93 69.50 53.36Q67.48 55.80 64.44 57.18Q61.39 58.57 57.63 58.57L57.63 58.57Q53.09 58.57 49.55 56.63Q46.00 54.69 44.01 51.10Q42.02 47.50 42.02 42.68L42.02 42.68Q42.02 37.86 43.98 34.27Q45.95 30.67 49.49 28.73Q53.03 26.79 57.63 26.79L57.63 26.79Q62.11 26.79 65.60 28.68Q69.09 30.56 71.05 34.05Q73.02 37.53 73.02 42.18L73.02 42.18ZM51.48 39.69L63.33 39.69Q63.33 37.26 61.67 35.82Q60.01 34.38 57.52 34.38L57.52 34.38Q55.14 34.38 53.50 35.76Q51.87 37.15 51.48 39.69L51.48 39.69ZM78.00 17.16L87.47 17.16L87.47 58.13L78.00 58.13L78.00 17.16ZM99.09 24.03Q96.60 24.03 95.02 22.56Q93.44 21.09 93.44 18.93L93.44 18.93Q93.44 16.72 95.02 15.25Q96.60 13.78 99.09 13.78L99.09 13.78Q101.53 13.78 103.10 15.25Q104.68 16.72 104.68 18.93L104.68 18.93Q104.68 21.09 103.10 22.56Q101.53 24.03 99.09 24.03L99.09 24.03ZM94.33 27.24L103.80 27.24L103.80 58.13L94.33 58.13L94.33 27.24ZM139.56 58.13L128.93 58.13L123.00 49.55L118.02 58.13L107.78 58.13L117.97 42.35L107.50 27.24L118.13 27.24L124.06 35.76L129.04 27.24L139.28 27.24L128.93 42.79L139.56 58.13ZM191.21 31.55L180.74 31.55Q179.69 29.62 177.73 28.59Q175.76 27.57 173.10 27.57L173.10 27.57Q168.51 27.57 165.74 30.59Q162.97 33.60 162.97 38.64L162.97 38.64Q162.97 44.01 165.88 47.03Q168.79 50.04 173.88 50.04L173.88 50.04Q177.37 50.04 179.77 48.27Q182.18 46.50 183.29 43.18L183.29 43.18L171.28 43.18L171.28 36.20L191.87 36.20L191.87 45.01Q190.82 48.55 188.30 51.59Q185.78 54.64 181.91 56.52Q178.03 58.40 173.16 58.40L173.16 58.40Q167.40 58.40 162.89 55.88Q158.38 53.36 155.86 48.88Q153.34 44.40 153.34 38.64L153.34 38.64Q153.34 32.88 155.86 28.37Q158.38 23.86 162.86 21.34Q167.35 18.82 173.10 18.82L173.10 18.82Q180.08 18.82 184.87 22.20Q189.66 25.58 191.21 31.55L191.21 31.55ZM226.25 42.18Q226.25 43.51 226.08 44.95L226.08 44.95L204.66 44.95Q204.88 47.83 206.51 49.35Q208.15 50.87 210.53 50.87L210.53 50.87Q214.07 50.87 215.45 47.88L215.45 47.88L225.53 47.88Q224.75 50.93 222.73 53.36Q220.71 55.80 217.67 57.18Q214.62 58.57 210.86 58.57L210.86 58.57Q206.32 58.57 202.78 56.63Q199.23 54.69 197.24 51.10Q195.25 47.50 195.25 42.68L195.25 42.68Q195.25 37.86 197.21 34.27Q199.18 30.67 202.72 28.73Q206.26 26.79 210.86 26.79L210.86 26.79Q215.34 26.79 218.83 28.68Q222.32 30.56 224.28 34.05Q226.25 37.53 226.25 42.18L226.25 42.18ZM204.71 39.69L216.56 39.69Q216.56 37.26 214.90 35.82Q213.24 34.38 210.75 34.38L210.75 34.38Q208.37 34.38 206.73 35.76Q205.10 37.15 204.71 39.69L204.71 39.69ZM250.05 26.90Q255.48 26.90 258.71 30.42Q261.95 33.93 261.95 40.08L261.95 40.08L261.95 58.13L252.54 58.13L252.54 41.35Q252.54 38.25 250.94 36.54Q249.33 34.82 246.62 34.82L246.62 34.82Q243.91 34.82 242.30 36.54Q240.70 38.25 240.70 41.35L240.70 41.35L240.70 58.13L231.23 58.13L231.23 27.24L240.70 27.24L240.70 31.33Q242.13 29.28 244.57 28.09Q247.01 26.90 250.05 26.90L250.05 26.90ZM297.66 42.18Q297.66 43.51 297.49 44.95L297.49 44.95L276.07 44.95Q276.29 47.83 277.92 49.35Q279.56 50.87 281.94 50.87L281.94 50.87Q285.48 50.87 286.86 47.88L286.86 47.88L296.94 47.88Q296.16 50.93 294.14 53.36Q292.12 55.80 289.08 57.18Q286.03 58.57 282.27 58.57L282.27 58.57Q277.73 58.57 274.19 56.63Q270.64 54.69 268.65 51.10Q266.66 47.50 266.66 42.68L266.66 42.68Q266.66 37.86 268.62 34.27Q270.59 30.67 274.13 28.73Q277.67 26.79 282.27 26.79L282.27 26.79Q286.75 26.79 290.24 28.68Q293.73 30.56 295.69 34.05Q297.66 37.53 297.66 42.18L297.66 42.18ZM276.12 39.69L287.97 39.69Q287.97 37.26 286.31 35.82Q284.65 34.38 282.16 34.38L282.16 34.38Q279.78 34.38 278.15 35.76Q276.51 37.15 276.12 39.69L276.12 39.69ZM316.48 50.10L319.86 50.10L319.86 58.13L315.04 58.13Q309.89 58.13 307.01 55.61Q304.14 53.09 304.14 47.39L304.14 47.39L304.14 35.10L300.37 35.10L300.37 27.24L304.14 27.24L304.14 19.71L313.60 19.71L313.60 27.24L319.80 27.24L319.80 35.10L313.60 35.10L313.60 47.50Q313.60 48.88 314.27 49.49Q314.93 50.10 316.48 50.10L316.48 50.10ZM329.88 24.03Q327.39 24.03 325.81 22.56Q324.23 21.09 324.23 18.93L324.23 18.93Q324.23 16.72 325.81 15.25Q327.39 13.78 329.88 13.78L329.88 13.78Q332.31 13.78 333.89 15.25Q335.47 16.72 335.47 18.93L335.47 18.93Q335.47 21.09 333.89 22.56Q332.31 24.03 329.88 24.03L329.88 24.03ZM325.12 27.24L334.58 27.24L334.58 58.13L325.12 58.13L325.12 27.24ZM339.56 42.68Q339.56 37.86 341.53 34.27Q343.49 30.67 347.01 28.73Q350.53 26.79 355.06 26.79L355.06 26.79Q360.88 26.79 364.78 29.84Q368.68 32.88 369.90 38.42L369.90 38.42L359.83 38.42Q358.55 34.88 354.90 34.88L354.90 34.88Q352.30 34.88 350.75 36.90Q349.20 38.92 349.20 42.68L349.20 42.68Q349.20 46.45 350.75 48.47Q352.30 50.49 354.90 50.49L354.90 50.49Q358.55 50.49 359.83 46.94L359.83 46.94L369.90 46.94Q368.68 52.37 364.75 55.47Q360.82 58.57 355.06 58.57L355.06 58.57Q350.53 58.57 347.01 56.63Q343.49 54.69 341.53 51.10Q339.56 47.50 339.56 42.68L339.56 42.68ZM387.50 58.57Q383.46 58.57 380.31 57.18Q377.15 55.80 375.33 53.39Q373.50 50.98 373.28 48.00L373.28 48.00L382.63 48.00Q382.80 49.60 384.13 50.60Q385.46 51.59 387.39 51.59L387.39 51.59Q389.17 51.59 390.13 50.90Q391.10 50.21 391.10 49.10L391.10 49.10Q391.10 47.77 389.72 47.14Q388.33 46.50 385.23 45.73L385.23 45.73Q381.91 44.95 379.70 44.09Q377.48 43.23 375.88 41.38Q374.27 39.53 374.27 36.37L374.27 36.37Q374.27 33.71 375.74 31.53Q377.21 29.34 380.06 28.07Q382.91 26.79 386.84 26.79L386.84 26.79Q392.65 26.79 396.00 29.67Q399.35 32.55 399.85 37.31L399.85 37.31L391.10 37.31Q390.88 35.71 389.69 34.76Q388.50 33.82 386.56 33.82L386.56 33.82Q384.90 33.82 384.02 34.46Q383.13 35.10 383.13 36.20L383.13 36.20Q383.13 37.53 384.54 38.20Q385.95 38.86 388.94 39.53L388.94 39.53Q392.38 40.41 394.53 41.27Q396.69 42.13 398.33 44.04Q399.96 45.95 400.02 49.16L400.02 49.16Q400.02 51.87 398.49 54.00Q396.97 56.13 394.12 57.35Q391.27 58.57 387.50 58.57L387.50 58.57Z" transform="translate(0, 0)"></path></g></svg></svg>